# xmcd
#
# Track frame offsets:
#	150
#	12317
#	26615
#	39507
#	52260
#	66602
#	83392
#	99167
#	115697
#	130087
#	144690
#	158035
#	172895
#
# Disc length: 2489 seconds
#
# Revision: 1
# Processed by: cddbd v1.5.1PL0 Copyright (c) Steve Scherf et al.
# Submitted via: CDex 1.50Beta5
#
DISCID=a309b70d
DTITLE=キャンディーズ - キャンディーズ1676日 Disc 1
DYEAR=2000
DGENRE=Pop
TTITLE0=キャンディーズ
TTITLE1=あなたに夢中
TTITLE2=はぐれた小鳩
TTITLE3=なみだ草
TTITLE4=危い土曜日
TTITLE5=なみだの季節
TTITLE6=年下の男の子
TTITLE7=私だけの悲しみ
TTITLE8=悲しきためいき
TTITLE9=くちづけのあと
TTITLE10=愛の瞬間
TTITLE11=内気なあいつ
TTITLE12=そよ風のくちづけ
EXTD=
EXTT0=
EXTT1=
EXTT2=
EXTT3=
EXTT4=
EXTT5=
EXTT6=
EXTT7=
EXTT8=
EXTT9=
EXTT10=
EXTT11=
EXTT12=
PLAYORDER=
